<svg width="164" height="164" viewBox="0 0 164 164" fill="none" xmlns="http://www.w3.org/2000/svg">
<path d="M19.1957 134.522C18.6115 134.522 18.4362 135.165 19.1373 135.632C20.5979 136.567 22 137.268 22 139.138C22 141.475 20.0721 142.701 18.4947 142.701H14.1129C10.3739 142.701 9.32226 138.67 10.8997 136.1L12.4187 137.268C11.6592 138.261 11.8344 140.54 13.9961 140.54H18.3194C19.1373 140.54 19.9552 140.189 19.8968 139.196C19.8384 138.378 19.1957 138.028 17.7936 137.034C16.1577 135.866 16.5667 132.711 19.2542 132.711H24.4538V136.801C24.4538 137.443 24.8043 137.794 25.2717 137.794H26.557V139.956H25.0964C22.5843 139.956 22.409 137.619 22.409 136.684V134.639H19.1957V134.522ZM15.8072 145.447V143.578H13.7624V145.447H15.8072ZM18.7284 145.447V143.578H16.6835V145.447H18.7284Z" fill="#88C5F1"/>
<path d="M27.3179 135.808C27.3763 133.295 29.3043 132.185 31.1154 132.185C33.8029 132.185 36.0814 134.581 36.0814 137.677H38.243V139.839H26.5V137.677H34.095C34.095 135.691 32.9849 134.113 31.1154 134.113C30.1222 134.113 29.3043 134.581 29.2459 135.749H27.3179V135.808Z" fill="#88C5F1"/>
<path d="M38.125 139.839V137.677H39.9361V133.003H41.9225L41.8056 134.405C42.9157 132.886 44.7268 132.419 45.6616 132.419C47.4727 132.419 49.6927 133.704 49.6927 136.216C49.6927 136.742 49.5759 137.268 49.4006 137.677H51.6791V139.839H38.125ZM46.0705 137.677C46.8884 137.677 47.5895 137.034 47.5895 136.275C47.5895 134.931 46.3042 134.522 45.72 134.464C43.4999 134.289 42.0978 136.333 41.8056 137.677H46.0705Z" fill="#88C5F1"/>
<path d="M51.6797 139.839V137.677H53.4324C53.9582 137.677 54.3087 137.327 54.3087 136.684V129.264H56.2951V136.509C56.2951 137.443 56.1198 139.78 53.6076 139.78H51.6797V139.839Z" fill="#88C5F1"/>
<path d="M60.3848 139.839H58.3984V129.323H60.3848V139.839Z" fill="#88C5F1"/>
<path d="M72.1288 137.677C71.7198 137.093 71.4277 136.509 71.4277 135.574C71.4277 133.821 72.6546 132.068 74.5825 132.068C76.5105 132.068 77.7958 133.821 77.7958 135.574C77.7958 136.509 77.4453 137.093 77.0947 137.677H79.0227V139.839H76.1015C75.6342 139.839 75.1083 139.722 74.641 139.488C74.232 139.722 73.5894 139.839 73.1804 139.839H68.3313C66.5202 139.839 65.118 138.203 65.0012 136.567C64.9428 136.041 65.0012 134.931 65.7607 133.821C66.5786 134.639 67.2213 135.223 67.2213 135.223C67.2213 135.223 66.8123 135.866 66.9291 136.567C67.046 137.151 67.5718 137.677 68.2729 137.677H72.1288ZM74.641 137.21C74.641 137.21 75.751 136.684 75.8094 135.574C75.8094 134.931 75.4589 134.172 74.641 134.172C73.823 134.172 73.4725 134.99 73.4725 135.574C73.4725 136.742 74.641 137.21 74.641 137.21ZM75.6342 128.563V130.433H73.5894V128.563H75.6342Z" fill="#88C5F1"/>
<path d="M78.7891 131.192L79.1396 129.965H79.7238V129.439C79.7238 128.446 80.1328 127.57 81.1844 127.57C82.1192 127.57 82.5866 128.037 82.645 129.206H81.5934C81.5934 128.855 81.3597 128.738 81.1844 128.738C80.8923 128.738 80.7754 129.03 80.7754 129.381V129.907H81.7102C81.7686 129.907 82.0607 129.965 82.1776 129.615L82.8787 130.374C82.645 130.958 82.0023 131.134 81.5934 131.134H78.7891V131.192ZM80.8923 139.839C83.4045 139.839 83.5797 137.502 83.5797 136.567V132.594H81.5934V136.684C81.5934 137.327 81.2428 137.677 80.717 137.677H78.9643V139.839H80.8923Z" fill="#88C5F1"/>
<path d="M88.3671 139.839C85.855 139.839 85.6797 137.502 85.6797 136.567V129.323H87.6661V136.742C87.6661 137.385 88.0166 137.735 88.484 137.735H89.7693V139.897H88.3671V139.839Z" fill="#88C5F1"/>
<path d="M100.987 137.677H103.323V139.839H89.7109V137.677H91.5805V129.323H93.5669L93.3916 134.405C94.5016 132.886 96.3127 132.419 97.2475 132.419C99.0586 132.419 101.279 133.704 101.279 136.216C101.279 136.742 101.162 137.268 100.987 137.677ZM97.6565 137.677C98.4744 137.677 99.1755 137.034 99.1755 136.275C99.1755 134.931 97.8901 134.522 97.3059 134.464C95.0858 134.289 93.6253 136.333 93.3916 137.677H97.6565Z" fill="#88C5F1"/>
<path d="M103.207 139.839V137.677H104.96C105.486 137.677 105.836 137.327 105.836 136.684V129.264H107.822V136.509C107.822 137.443 107.647 139.78 105.135 139.78H103.207V139.839Z" fill="#88C5F1"/>
<path d="M111.912 139.839H109.926V129.323H111.912V139.839Z" fill="#88C5F1"/>
<path d="M123.715 141.241C122.955 142.059 121.962 142.643 120.735 142.643C118.106 142.643 116.354 140.423 116.587 137.677H120.093C119.508 136.976 119.041 136.392 118.69 135.691C119.216 132.477 121.027 132.127 122.313 132.068C123.54 132.068 125.409 132.477 125.935 135.691C125.584 136.333 125.117 136.918 124.533 137.677H127.103V139.839H124.065C123.423 139.839 122.897 139.663 122.371 139.371C121.845 139.605 121.32 139.839 120.677 139.839H119.275C119.625 140.248 120.151 140.54 120.852 140.54C121.203 140.54 121.495 140.481 121.845 140.306L123.715 141.241ZM120.852 135.34C121.027 135.749 121.553 136.45 122.313 137.034C123.072 136.392 123.598 135.749 123.773 135.34C123.423 134.23 122.546 133.996 122.313 133.996C122.079 134.055 121.144 134.23 120.852 135.34Z" fill="#88C5F1"/>
<path d="M136.803 137.677H137.796V139.839H136.861C136.16 139.839 135.517 139.488 135.05 139.079C134.466 140.014 133.531 140.715 132.246 140.715C131.077 140.715 130.201 140.131 129.617 139.313C129.208 139.605 128.682 139.839 127.981 139.839H126.754V137.677H127.806C128.098 137.677 128.623 137.502 128.682 136.684C128.682 134.756 129.909 132.711 132.187 132.711C134.466 132.711 135.634 134.698 135.693 136.509C135.926 137.151 136.218 137.677 136.803 137.677ZM133.823 136.625C133.823 135.457 133.473 134.522 132.363 134.522C131.311 134.522 130.902 135.457 130.902 136.625C130.902 137.911 131.252 138.846 132.363 138.846C133.473 138.846 133.823 137.911 133.823 136.625Z" fill="#88C5F1"/>
<path d="M138.552 135.808C138.611 133.295 140.539 132.185 142.35 132.185C145.037 132.185 147.316 134.581 147.316 137.677H149.477V139.839H137.734V137.677H145.329C145.329 135.691 144.219 134.113 142.35 134.113C141.357 134.113 140.539 134.581 140.48 135.749H138.552V135.808ZM143.46 140.773V142.643H141.473V140.773H143.46Z" fill="#88C5F1"/>
<path d="M151.057 129.323V131.192H149.07V129.323H151.057ZM149.421 139.839V137.677H151.174C151.699 137.677 152.05 137.327 152.05 136.684V132.594H154.036V136.567C154.036 137.502 153.861 139.839 151.349 139.839H149.421ZM154.036 129.323V131.192H152.05V129.323H154.036Z" fill="#88C5F1"/>
<path d="M12.5356 150.472H10.0234V148.894H17.2679V150.53H14.6973V157.482H12.5356V150.472Z" fill="#88C5F1"/>
<path d="M19.8979 155.262L19.2552 157.482H17.0352L19.8979 148.894H22.7022L25.6233 157.482H23.3448L22.6438 155.262H19.8979ZM22.2932 153.802L21.709 151.991C21.5337 151.465 21.3585 150.822 21.2416 150.355C21.1248 150.881 20.9495 151.523 20.8326 151.991L20.2484 153.802H22.2932Z" fill="#88C5F1"/>
<path d="M29.4195 148.894V157.482H27.2578V148.894H29.4195Z" fill="#88C5F1"/>
<path d="M31.6406 148.894H37.4245V150.472H33.8023V152.4H37.1908V153.977H33.8023V157.424H31.6406V148.894Z" fill="#88C5F1"/>
<path d="M44.6696 148.894V152.166H48.175V148.894H50.2782V157.482H48.175V153.919H44.6696V157.482H42.5664V148.894H44.6696Z" fill="#88C5F1"/>
<path d="M58.1633 153.802H54.7163V155.847H58.5723V157.424H52.5547V148.894H58.397V150.472H54.7163V152.224H58.1633V153.802Z" fill="#88C5F1"/>
<path d="M62.5463 155.262L61.9037 157.482H59.6836L62.5463 148.894H65.3506L68.2718 157.482H65.9933L65.2922 155.262H62.5463ZM64.9417 153.802L64.3574 151.991C64.1822 151.465 64.0069 150.822 63.89 150.355C63.7732 150.881 63.5979 151.523 63.4811 151.991L62.8969 153.802H64.9417Z" fill="#88C5F1"/>
<path d="M69.9062 148.894H72.0679V155.847H75.807V157.482H69.9062V148.894Z" fill="#88C5F1"/>
<path d="M77.7934 150.472H75.2812V148.894H82.5257V150.53H79.9551V157.482H77.7934V150.472Z" fill="#88C5F1"/>
<path d="M86.1499 148.894V152.166H89.6553V148.894H91.7585V157.482H89.6553V153.919H86.1499V157.482H83.9883V148.894H86.1499Z" fill="#88C5F1"/>
<path d="M104.143 157.19C103.734 157.366 102.857 157.541 101.747 157.541C98.4757 157.541 96.8398 155.671 96.8398 153.276C96.8398 150.355 99.1183 148.719 101.981 148.719C103.091 148.719 103.909 148.894 104.318 149.128L103.909 150.647C103.5 150.472 102.857 150.355 102.098 150.355C100.404 150.355 99.1183 151.29 99.1183 153.218C99.1183 154.912 100.228 156.022 102.156 156.022C102.799 156.022 103.5 155.905 103.909 155.73L104.143 157.19Z" fill="#88C5F1"/>
<path d="M105.895 148.894H108.056V155.847H111.795V157.482H105.895V148.894Z" fill="#88C5F1"/>
<path d="M115.068 148.894V153.802C115.068 155.262 115.711 156.022 116.762 156.022C117.872 156.022 118.515 155.321 118.515 153.802V148.894H120.618V153.685C120.618 156.314 119.158 157.599 116.704 157.599C114.308 157.599 112.906 156.431 112.906 153.685V148.894H115.068Z" fill="#88C5F1"/>
<path d="M122.956 155.438C123.54 155.73 124.416 155.963 125.293 155.963C126.286 155.963 126.812 155.613 126.812 155.029C126.812 154.503 126.344 154.211 125.234 153.802C123.657 153.334 122.664 152.516 122.664 151.29C122.664 149.829 124.007 148.719 126.228 148.719C127.279 148.719 128.097 148.894 128.623 149.128L128.155 150.705C127.805 150.53 127.104 150.296 126.169 150.296C125.234 150.296 124.825 150.705 124.825 151.114C124.825 151.64 125.351 151.874 126.578 152.341C128.214 152.925 129.032 153.685 129.032 154.912C129.032 156.372 127.805 157.541 125.234 157.541C124.183 157.541 123.073 157.307 122.547 157.015L122.956 155.438Z" fill="#88C5F1"/>
<path d="M132.594 150.472H130.082V148.894H137.326V150.53H134.756V157.482H132.594V150.472Z" fill="#88C5F1"/>
<path d="M144.398 153.802H140.951V155.847H144.807V157.424H138.789V148.894H144.631V150.472H140.951V152.224H144.398V153.802Z" fill="#88C5F1"/>
<path d="M146.617 149.011C147.318 148.894 148.311 148.836 149.48 148.836C150.882 148.836 151.875 149.011 152.518 149.537C153.102 149.946 153.394 150.53 153.394 151.348C153.394 152.458 152.518 153.218 151.758 153.451V153.51C152.401 153.743 152.752 154.328 153.044 155.087C153.336 156.08 153.628 157.19 153.803 157.482H151.642C151.466 157.249 151.291 156.548 150.999 155.496C150.765 154.444 150.356 154.152 149.48 154.152H148.837V157.541H146.734V149.011H146.617ZM148.779 152.692H149.597C150.648 152.692 151.291 152.224 151.291 151.465C151.291 150.705 150.707 150.296 149.714 150.296C149.188 150.296 148.896 150.355 148.72 150.355V152.692H148.779Z" fill="#88C5F1"/>
<path d="M75.0509 51.4448C66.638 44.434 61.3799 33.6258 57.4656 23.6355C57.2903 23.1681 57.4072 23.0512 57.8161 23.3433C59.7441 24.6871 63.2495 27.9003 65.8201 26.4982C66.229 26.2645 66.8133 25.6803 67.4559 24.7455C71.9545 18.7279 76.4531 12.7688 80.8932 6.80965C81.3022 6.22542 81.419 6.28385 81.1853 6.98492C78.9652 13.0609 76.7452 19.3122 74.4667 25.7387C74.2914 26.2061 74.1746 27.1993 74.0577 28.7183C73.9409 30.6462 74.0577 34.0932 74.5251 39.2344C74.8756 43.2656 75.1677 47.2968 75.4599 51.2111C75.4599 51.3279 75.343 51.4448 75.2262 51.4448C75.1677 51.5032 75.1093 51.4448 75.0509 51.4448Z" fill="#88C5F1"/>
<path d="M106.305 23.4018C102.683 33.2168 97.4831 44.2588 89.2455 51.1527C89.1871 51.2111 89.0118 51.2111 88.9534 51.1527C88.895 51.0943 88.895 51.0943 88.895 51.0358C89.2455 45.4857 89.5376 39.9355 89.8297 34.2684C89.9466 32.3989 89.8881 30.5294 89.7129 28.6598C89.596 27.1409 89.1871 25.3297 88.5444 23.1681C86.9086 17.6763 85.2727 12.243 83.6953 6.75125C83.6953 6.69282 83.6953 6.6344 83.7537 6.6344C83.7537 6.6344 83.7537 6.6344 83.8122 6.6344C83.8706 6.6344 83.929 6.69282 83.929 6.75125C88.1939 12.8857 92.4588 19.0785 96.7236 25.2713C98.2426 27.4914 100.229 27.1409 102.274 25.7971C103.559 24.9792 104.786 24.1029 106.013 23.2849C106.363 22.9344 106.48 22.9928 106.305 23.4018Z" fill="#88C5F1"/>
<path d="M100.114 23.6355C102.147 23.6355 103.795 21.9876 103.795 19.9548C103.795 17.9221 102.147 16.2742 100.114 16.2742C98.0815 16.2742 96.4336 17.9221 96.4336 19.9548C96.4336 21.9876 98.0815 23.6355 100.114 23.6355Z" fill="#88C5F1"/>
<path d="M63.54 23.6939C65.5728 23.6939 67.2207 22.046 67.2207 20.0132C67.2207 17.9805 65.5728 16.3326 63.54 16.3326C61.5073 16.3326 59.8594 17.9805 59.8594 20.0132C59.8594 22.046 61.5073 23.6939 63.54 23.6939Z" fill="#88C5F1"/>
<path d="M113.725 45.8946C106.714 48.2315 99.9951 51.2111 93.1596 54.0154C93.1012 54.0738 92.9844 54.0154 92.9844 53.957C92.9844 53.8986 92.9844 53.8986 92.9844 53.8401C95.0876 47.7642 99.4109 42.3308 103.968 37.657C107.356 34.1516 110.628 31.1136 113.666 28.4846C113.725 28.4262 113.783 28.3677 113.841 28.2509C113.9 28.134 114.017 28.0756 114.133 28.0756C114.25 28.0756 114.309 28.1925 114.309 28.2509C114.309 28.2509 114.309 28.2509 114.309 28.3093C113.725 30.5294 111.972 34.9111 113.666 36.7806C114.133 37.3064 115.01 37.7154 116.295 38.1244C122.722 39.9355 129.382 41.805 136.217 43.733C137.152 44.0251 137.152 44.1419 136.159 44.2004C130.2 44.434 124.007 44.7262 117.522 45.0183C116.587 45.0767 115.36 45.3688 113.725 45.8946Z" fill="#88C5F1"/>
<path d="M50.1601 38.2412C52.3218 37.5401 52.2049 34.7358 51.6791 33.0415C51.2702 31.6978 50.8028 30.2956 50.3938 28.9519C50.277 28.4845 50.3354 28.4261 50.7443 28.7182C58.8651 35.0279 68.4465 43.6161 72.3608 53.3727C72.4193 53.4896 72.3608 53.6064 72.244 53.6648C72.1856 53.6648 72.1271 53.6648 72.0687 53.6648C66.5185 51.5616 61.0268 49.5168 55.5935 47.5304C52.3802 46.362 49.6343 45.6609 46.0705 45.6609C39.9361 45.6025 33.8017 45.544 27.6673 45.6025C27.5504 45.6025 27.4336 45.4856 27.4336 45.3688V45.2519C27.4336 45.1935 27.4336 45.1935 27.492 45.1935C27.9594 45.1351 28.4268 45.0182 28.8942 44.9014C36.0218 42.6813 43.0909 40.4612 50.1601 38.2412Z" fill="#88C5F1"/>
<path d="M118.692 36.6054C120.725 36.6054 122.373 34.9575 122.373 32.9247C122.373 30.892 120.725 29.2441 118.692 29.2441C116.66 29.2441 115.012 30.892 115.012 32.9247C115.012 34.9575 116.66 36.6054 118.692 36.6054Z" fill="#88C5F1"/>
<path d="M46.0127 37.7154C48.0454 37.7154 49.6933 36.0675 49.6933 34.0348C49.6933 32.002 48.0454 30.3541 46.0127 30.3541C43.9799 30.3541 42.332 32.002 42.332 34.0348C42.332 36.0675 43.9799 37.7154 46.0127 37.7154Z" fill="#88C5F1"/>
<path d="M137.504 46.8294V47.0046C133.122 53.0222 128.74 59.0398 124.3 65.0573C123.132 66.6347 122.606 67.6864 123.658 69.439C124.651 71.1917 127.105 72.7107 128.624 73.8792C128.974 74.1129 128.916 74.2297 128.507 74.2297C121.554 73.8208 114.719 72.7107 108.059 70.7828C104.378 69.7312 100.931 68.1537 97.7179 66.1089C97.601 66.0505 97.601 65.9337 97.6595 65.8168C97.6595 65.7584 97.7179 65.7584 97.7763 65.7C101.632 64.7652 105.547 63.772 109.461 62.7788C114.485 61.4935 119.568 60.2082 123.366 57.2286C127.981 53.6648 132.596 50.1595 137.212 46.7125C137.27 46.6541 137.329 46.6541 137.387 46.7125C137.445 46.7709 137.504 46.8294 137.504 46.8294Z" fill="#88C5F1"/>
<path d="M67.3962 66.9268C63.774 69.3806 59.626 71.0749 55.3611 72.1849C49.0514 73.8207 42.5665 74.9308 35.9647 75.3982C35.8479 75.3982 35.8479 75.3397 35.8479 75.2813C35.8479 75.2229 35.9063 75.1645 35.9647 75.106C37.25 74.0544 38.5353 73.0028 39.8206 71.9512C41.6317 70.4322 41.9238 68.3874 40.4633 66.4595C35.7894 60.325 31.2324 54.2491 26.7923 48.2315C26.3249 47.5888 26.4418 47.5304 27.026 47.9978C32.1088 51.6785 37.3084 55.4759 42.6249 59.4487C45.3124 61.4351 49.9862 62.4867 53.1995 63.2462C57.8733 64.4146 62.6056 65.5247 67.3378 66.6347C67.4547 66.6347 67.5131 66.7516 67.4547 66.8684C67.4547 66.8684 67.4547 66.9268 67.3962 66.9268Z" fill="#88C5F1"/>
<path d="M76.0444 61.7857C73.7075 63.4215 72.1301 65.6416 71.429 68.4459C71.2537 69.0301 71.1953 69.0301 71.0785 68.4459C70.6111 64.7068 71.838 61.4935 74.876 58.7477C75.2265 58.4556 75.1681 58.3387 74.7007 58.3971C72.1885 58.8061 69.9684 59.8577 68.1573 61.6104C67.7484 62.0194 67.6315 61.9609 67.8652 61.4351C70.2021 56.3523 76.2197 53.957 81.5362 55.5344C81.7699 55.5928 82.0036 55.476 82.062 55.2423L82.4125 54.2491C82.4125 54.1323 82.5294 54.1323 82.6462 54.1323C82.7046 54.1323 82.763 54.1907 82.763 54.2491L82.9383 55.1839C82.9967 55.4176 83.172 55.5344 83.4057 55.5344H83.4641C88.839 53.957 94.8566 56.2939 97.1935 61.4936C97.3688 61.9025 97.3104 61.9609 96.9598 61.6688C95.0903 59.9161 92.8702 58.8061 90.2996 58.4556C89.9491 58.3971 89.8906 58.514 90.1828 58.7477C93.0455 61.3767 94.3308 64.7068 94.0387 68.6211C93.9803 69.3222 93.8634 69.3222 93.6881 68.6211C92.9871 65.8168 91.4681 63.5384 89.1311 61.7857C88.8975 61.6104 88.839 61.6688 88.9559 61.9609C90.5333 65.8753 89.9491 70.4323 87.32 73.7624C86.9111 74.2882 86.7942 74.2297 87.0279 73.5871C88.3717 69.0885 87.5537 65.1742 84.4573 61.7857C84.3405 61.6104 84.2236 61.6688 84.282 61.8441C84.5742 65.8753 84.1068 69.7312 82.8799 73.5871C82.7046 74.1129 82.5294 74.1129 82.3541 73.5871C81.2441 69.9649 80.7767 66.3427 80.8935 62.6036C80.8935 62.4867 80.9519 62.3115 81.0104 62.0778C81.0688 61.9025 81.0104 61.8441 80.8351 61.9025C80.7182 61.9025 80.6598 61.9609 80.6014 62.0778C77.5634 65.6416 76.8039 69.5559 78.3229 73.7624C78.615 74.5803 78.4982 74.6387 77.9724 73.9376C75.2265 70.3154 74.6423 66.3427 76.2781 61.9609C76.2197 61.6688 76.2197 61.6688 76.0444 61.7857Z" fill="#88C5F1"/>
<path d="M133.219 67.4371C133.545 65.4306 132.182 63.5399 130.176 63.2143C128.169 62.8886 126.279 64.2513 125.953 66.2578C125.627 68.2644 126.99 70.155 128.996 70.4806C131.003 70.8063 132.894 69.4436 133.219 67.4371Z" fill="#88C5F1"/>
<path d="M35.7314 71.4254C37.7642 71.4254 39.4121 69.7776 39.4121 67.7448C39.4121 65.712 37.7642 64.0641 35.7314 64.0641C33.6987 64.0641 32.0508 65.712 32.0508 67.7448C32.0508 69.7776 33.6987 71.4254 35.7314 71.4254Z" fill="#88C5F1"/>
<path d="M47.4155 86.0896C47.4155 83.928 45.3707 82.7011 43.4427 82.5842C41.8069 82.5258 40.2295 82.4674 38.7689 82.4674C38.3599 82.4674 38.3015 82.3505 38.652 82.1168C46.9481 76.7419 58.0485 70.6659 68.1556 70.4323C68.5062 70.4323 68.5646 70.5491 68.3309 70.8412C64.7087 75.1645 61.1449 79.4878 57.7563 83.928C55.7115 86.6154 54.0173 88.8939 53.1409 91.9319C51.2714 98.0663 49.3434 104.259 47.4155 110.452C47.1234 111.445 46.9481 111.445 47.0065 110.394C47.1818 107.706 47.0649 104.434 47.1234 102.039C47.2986 96.7226 47.3571 91.4061 47.4155 86.0896Z" fill="#88C5F1"/>
<path d="M96.6644 70.4323C107.005 70.6075 118.047 76.0993 126.519 81.6495C126.694 81.7663 126.694 81.8247 126.46 81.8832C124.474 82.1753 122.429 82.5258 120.384 82.8763C118.69 83.1685 117.229 84.4538 117.405 86.3233C118.047 94.2104 118.631 101.981 119.157 109.692C119.216 110.218 119.099 110.218 118.924 109.751C116.703 104.376 114.483 98.8842 112.322 93.3925C111.387 90.9971 110.452 89.0692 109.634 87.7254C108.641 86.0896 107.414 84.3369 106.012 82.5258C102.974 78.6115 99.7608 74.6387 96.4891 70.7828C96.4307 70.7244 96.4307 70.6075 96.4891 70.5491C96.606 70.4323 96.6644 70.4323 96.6644 70.4323Z" fill="#88C5F1"/>
<path d="M93.4529 104.259C89.7722 103.091 88.4285 109.342 87.669 111.504C87.4937 111.913 87.3769 111.913 87.26 111.504C85.3905 104.668 83.9884 97.7742 83.6962 90.6466C83.5794 87.667 83.6962 83.11 84.8063 79.8968C84.8647 79.7799 84.9231 79.7799 85.04 79.7799C85.0984 79.7799 85.0984 79.8383 85.1568 79.8383C88.0195 84.2201 90.9407 88.6018 93.9203 92.9251C95.9651 95.9046 98.1851 98.6505 101.282 100.754C106.656 104.318 111.915 107.881 117.114 111.387C117.523 111.679 117.523 111.737 116.997 111.62C109.227 109.225 101.398 106.771 93.4529 104.259Z" fill="#88C5F1"/>
<path d="M76.2177 106.888C75.575 105.194 73.9392 103.675 72.0112 104.434C64.3578 107.239 56.8212 109.985 49.3431 112.73C48.9341 112.906 48.8757 112.847 49.2263 112.555C54.0169 108.816 58.866 105.135 63.7736 101.396C65.5847 99.9942 66.9868 98.7674 68.0384 97.6573C69.2069 96.372 70.4338 94.9115 71.6022 93.2172C74.6987 88.9523 77.6782 84.629 80.541 80.1889C80.5994 80.072 80.7162 79.9552 80.7746 79.9552C80.8331 79.8968 80.9499 79.8968 81.0083 80.0136L81.0668 80.072C82.6442 90.5297 81.1252 101.63 78.3209 111.679C78.204 111.971 78.1456 111.971 78.0288 111.679C77.3861 110.101 76.8019 108.524 76.2177 106.888Z" fill="#88C5F1"/>
<path d="M123.54 91.6397C125.573 91.6397 127.221 89.9919 127.221 87.9591C127.221 85.9263 125.573 84.2784 123.54 84.2784C121.507 84.2784 119.859 85.9263 119.859 87.9591C119.859 89.9919 121.507 91.6397 123.54 91.6397Z" fill="#88C5F1"/>
<path d="M42.3916 93.1588C44.4243 93.1588 46.0722 91.5109 46.0722 89.4781C46.0722 87.4454 44.4243 85.7975 42.3916 85.7975C40.3588 85.7975 38.7109 87.4454 38.7109 89.4781C38.7109 91.5109 40.3588 93.1588 42.3916 93.1588Z" fill="#88C5F1"/>
<path d="M71.8369 113.84C73.8697 113.84 75.5175 112.193 75.5175 110.16C75.5175 108.127 73.8697 106.479 71.8369 106.479C69.8041 106.479 68.1562 108.127 68.1562 110.16C68.1562 112.193 69.8041 113.84 71.8369 113.84Z" fill="#88C5F1"/>
<path d="M93.9775 113.84C96.0103 113.84 97.6582 112.193 97.6582 110.16C97.6582 108.127 96.0103 106.479 93.9775 106.479C91.9448 106.479 90.2969 108.127 90.2969 110.16C90.2969 112.193 91.9448 113.84 93.9775 113.84Z" fill="#88C5F1"/>
</svg>
